<?xml version="1.0" encoding="utf-8"?>
<!-- Generator: Adobe Illustrator 22.1.0, SVG Export Plug-In . SVG Version: 6.00 Build 0)  -->
<svg version="1.1" id="Layer_1" xmlns="http://www.w3.org/2000/svg" xmlns:xlink="http://www.w3.org/1999/xlink" x="0px" y="0px"
	 viewBox="0 0 48 60" style="enable-background:new 0 0 48 60;" xml:space="preserve">
<g>
	<g>
		<g>
			<path d="M1.9,46c0.8-7.2,1.3-14.4,1.6-21.6c0-2.3-0.8-21.1,1-21.2C8.3,3,46.1,1.7,46.1,2.7c0.1,7.1-0.8,14.4-0.8,21.5
				c0,2.6,1.8,21.2-1.8,21.3c-4.4,0.1-4.3-1.2-4.3-5.4c0-4,0-8,0.1-12c0-3.3,0-6.7,0-10c0-2.7,0.5-6-0.1-8.7c0-0.2-0.2-0.3-0.4-0.4
				c-2-0.6-4.4-0.2-6.5-0.2c-3.9,0-7.7,0-11.6,0C19,8.8,9.9,7.3,9.4,9.9c-1,5.9-0.6,12.2-0.5,18.1c0,3.9,0.1,7.7,0,11.6
				c0,1.5,0.5,6.1-2.4,6.1c-1.6,0-3.2,0-4.8,0c-0.8,0-0.8,1.3,0,1.3c2,0,5.6,0.8,7.5-0.3c1.5-0.9,0.8-5.7,0.9-7.1
				c0.1-3.8-2.1-29.5,3-29.5c4.5,0,9,0,13.5,0c2.6,0,5.1,0,7.7,0c4.2,0,3.9,2.8,3.9,6.1c0,10-0.1,20-0.1,30c0,0.3,0.3,0.6,0.6,0.6
				c1.8,0,6.4,1,7.9-0.5c1.4-1.4,0.3-6.8,0.3-8.6c-0.2-11-0.4-22,0.5-33.1c0-0.4,0.7-3.1-0.5-3.4C42.8,0.3,38.3,0.8,34.4,1
				C23.9,1.4,13.3,1.5,2.8,2C2.5,2,2.2,2.3,2.2,2.6c0.5,14.5,0,28.9-1.5,43.3C0.5,46.8,1.8,46.8,1.9,46L1.9,46z"/>
		</g>
	</g>
	<g>
		<g>
			<path d="M13.4,6.4c0.5,0,1,0,1.5,0c0.8,0,0.8-1.3,0-1.3c-0.5,0-1,0-1.5,0C12.6,5.1,12.6,6.4,13.4,6.4L13.4,6.4z"/>
		</g>
	</g>
	<g>
		<g>
			<path d="M17.3,6.5c0.4,0.1,0.9,0.2,1.3,0.1c0.8-0.1,0.8-1.3,0-1.3c-0.3,0-0.7,0-1-0.1C16.9,5,16.5,6.2,17.3,6.5L17.3,6.5z"/>
		</g>
	</g>
	<g>
		<g>
			<path d="M22,6.6c0.3,0,0.5,0,0.8,0c0.8,0,0.8-1.3,0-1.3c-0.3,0-0.5,0-0.8,0C21.2,5.3,21.2,6.6,22,6.6L22,6.6z"/>
		</g>
	</g>
	<g>
		<g>
			<path d="M26.4,6.5c0.7,0,1.3,0,2,0c0.8,0,0.8-1.3,0-1.3c-0.7,0-1.3,0-2,0C25.6,5.2,25.6,6.5,26.4,6.5L26.4,6.5z"/>
		</g>
	</g>
	<g>
		<g>
			<path d="M31.6,6.4c0.7,0,1.5,0,2.2,0c0.8,0,0.8-1.3,0-1.3c-0.7,0-1.5,0-2.2,0C30.8,5.1,30.8,6.4,31.6,6.4L31.6,6.4z"/>
		</g>
	</g>
	<g>
		<g>
			<path d="M41.2,23.3c0,0.2,0,0.4,0,0.6c0,0.8,1.3,0.8,1.3,0c0-0.2,0-0.4,0-0.6C42.5,22.5,41.2,22.5,41.2,23.3L41.2,23.3z"/>
		</g>
	</g>
	<g>
		<g>
			<path d="M40.8,29.1c0,1,0,1.9,0,2.9c0,0.8,1.3,0.8,1.3,0c0-1,0-1.9,0-2.9C42,28.3,40.8,28.3,40.8,29.1L40.8,29.1z"/>
		</g>
	</g>
	<g>
		<g>
			<path d="M20.7,15.8c-0.1-1.4,0.7-2.2,1.8-2.9c0.5-0.3,1.5-0.8,2.1-0.3c0.5,0.4,0.7,1.3,0.9,1.8c1,3.1-4.3,4.6-5.2,1.8
				c-0.2-0.8-1.4-0.4-1.2,0.3c0.6,1.9,2.5,2.5,4.3,2.3c2.2-0.2,3.6-2,3.4-4.2c-0.2-2-1.5-4-3.7-3.4c-2,0.5-3.9,2.3-3.7,4.5
				C19.5,16.6,20.8,16.6,20.7,15.8L20.7,15.8z"/>
		</g>
	</g>
	<g>
		<g>
			<path d="M21,21.8c1.9-0.1,4.5-0.5,6.2,0.5c1.5,0.9,3.1,2.3,4.4,3.5c0.4,0.4,0.7,0.7,1.1,1.1c0.2,0.2,0.5,0.4,0.7,0.6
				c0.7,0.5,0.5,1.3-0.7,2.4c-1.2-1.1-2.5-2.1-3.8-3.1c-0.6-0.5-1.3,0.6-0.6,1.1c1.3,1,4.4,4.8,6.3,4.4c1.6-0.3,3-2,1.8-3.7
				c-1.8-2.5-4.7-4.4-7.1-6.3c-2.6-2-5-1.8-8.2-1.7C20.2,20.6,20.2,21.9,21,21.8L21,21.8z"/>
		</g>
	</g>
	<g>
		<g>
			<path d="M28,27.3c-0.2,5.7,0,11.4,0.2,17.1c0,0.8,1.3,0.8,1.3,0c-0.2-5.7-0.4-11.4-0.2-17.1C29.3,26.5,28,26.5,28,27.3L28,27.3z"
				/>
		</g>
	</g>
	<g>
		<g>
			<path d="M28.1,44.6c-2,0.8-2.8,0.3-2.7-1.4c-0.1-0.9-0.1-1.8-0.1-2.7c0-1.8,0.3-3.7,0.4-5.5c0.1-1.7-3-1.1-3.8-1
				c-0.8,0-0.8,1.3,0,1.3c1.5-0.1,2.6-0.3,2.5,1.6c-0.1,1.2-0.2,2.4-0.2,3.7c-0.1,1.9-0.1,4,0.9,5.7c0.4,0.7,1.9,1.2,2.7,0.9
				c1.2-0.5,1.5-1.2,1.6-2.5C29.4,43.7,28.2,43.8,28.1,44.6L28.1,44.6z"/>
		</g>
	</g>
	<g>
		<g>
			<path d="M21.3,34.6c0.1,3.3,0.1,6.7,0,10c0,0.8,1.2,0.8,1.3,0c0-3.3,0-6.7,0-10C22.5,33.8,21.3,33.8,21.3,34.6L21.3,34.6z"/>
		</g>
	</g>
	<g>
		<g>
			<path d="M21.2,44.8c-0.7-0.3-1.4-0.6-2.2-1c0-0.9,0-1.9-0.1-2.8c0-1.4-0.1-2.8-0.1-4.3c-0.1-2.8-0.1-5.7-0.2-8.5
				c0-0.8-1.3-0.8-1.3,0c0.1,3.3,0.1,6.6,0.2,9.9c0,2.5-0.3,5.3,0.5,7.7c0.9,2.5,3.6,0.9,4.2-0.8C22.7,44.4,21.5,44.1,21.2,44.8
				L21.2,44.8z"/>
		</g>
	</g>
	<g>
		<g>
			<path d="M17.5,27.7c-0.9,1-1.8,1.8-2.9,2.6c-0.7,0.8-1.4,0.4-1.9-1c0.2-0.8,0.9-1.6,1.5-2.2c1.8-2,3.6-4.6,6.4-5.1
				c0.8-0.1,0.5-1.3-0.3-1.2c-2.2,0.4-3.7,1.8-5.1,3.4c-1.5,1.6-3.3,3.1-3.8,5.3c-0.3,1.5,0.6,2.6,2,2.7c1.6,0.2,4.1-2.7,5-3.7
				C19,28,18.1,27.1,17.5,27.7L17.5,27.7z"/>
		</g>
	</g>
</g>
</svg>
